<?xml version="1.0" encoding="UTF-8"?>
<!DOCTYPE svg PUBLIC "-//W3C//DTD SVG 1.1//EN" "http://www.w3.org/Graphics/SVG/1.1/DTD/svg11.dtd">
<svg xmlns="http://www.w3.org/2000/svg" version="1.1" width="192px" height="177px" style="shape-rendering:geometricPrecision; text-rendering:geometricPrecision; image-rendering:optimizeQuality; fill-rule:evenodd; clip-rule:evenodd" xmlns:xlink="http://www.w3.org/1999/xlink">
<g><path style="opacity:1" fill="#2350d7" d="M 51.5,15.5 C 76.8333,15.5 102.167,15.5 127.5,15.5C 127.5,21.8333 127.5,28.1667 127.5,34.5C 110.167,34.5 92.8333,34.5 75.5,34.5C 75.5,48.5 75.5,62.5 75.5,76.5C 91.5,76.5 107.5,76.5 123.5,76.5C 123.5,83.1667 123.5,89.8333 123.5,96.5C 107.5,96.5 91.5,96.5 75.5,96.5C 75.5,115.833 75.5,135.167 75.5,154.5C 67.5,154.5 59.5,154.5 51.5,154.5C 51.5,108.167 51.5,61.8333 51.5,15.5 Z"/></g>
<g><path style="opacity:1" fill="#2150d7" d="M 139.5,131.5 C 152.681,129.854 158.848,135.521 158,148.5C 153.841,155.67 147.674,158.17 139.5,156C 131.156,152.318 128.656,146.151 132,137.5C 134.114,134.879 136.614,132.879 139.5,131.5 Z"/></g>
</svg>
